<svg width="1360" height="220" viewBox="0 0 1360 220" fill="none" xmlns="http://www.w3.org/2000/svg">
<path fill-rule="evenodd" clip-rule="evenodd" d="M1343.33 141.725L1356.49 73.8606C1358.24 64.9388 1360 48.1191 1360 40.6599C1360 17.9898 1345.08 0 1320.51 0C1295.94 0 1280.87 17.9898 1280.87 40.6599C1280.87 48.1191 1282.78 64.9388 1284.53 73.8606L1297.69 141.725C1304.28 137.922 1312.03 135.728 1320.51 135.728C1328.99 135.728 1336.74 137.922 1343.33 141.725ZM1046.79 217.925C1102.66 217.925 1127.23 181.653 1127.23 109.694C1127.23 37.7347 1102.66 1.46259 1046.79 1.46259C990.921 1.46259 966.35 37.7347 966.35 109.694C966.35 181.653 990.921 217.925 1046.79 217.925ZM124.612 178.435C124.612 200.521 110.864 215 90.8266 215H38.3197C14.9184 215 0 198.473 0 174.486V42.5612C0 18.5748 14.9184 2.19388 38.3197 2.19388C61.7211 2.19388 76.6395 18.5748 76.6395 42.5612V137.922C65.2313 137.922 55.7245 140.554 50.6055 143.187C48.8504 144.065 47.9728 145.089 47.9728 146.405C47.9728 147.136 48.2653 148.745 50.0204 148.745C50.6055 148.745 52.3606 148.306 53.5306 147.721C61.4286 143.772 74.2994 143.041 81.466 143.041C105.16 143.041 124.612 152.255 124.612 178.435ZM277.9 136.167C277.9 138.274 277.839 140.355 277.719 142.406L277.37 146.764C273.067 189.04 242.85 217.925 198.628 217.925C150.655 217.925 119.209 184.14 119.209 136.167V42.5612C119.209 18.5748 134.128 2.19388 157.529 2.19388C180.93 2.19388 195.849 18.5748 195.849 42.5612V150.208C195.849 152.548 196.434 154.01 198.628 154.01C200.675 154.01 201.26 152.548 201.26 150.208V42.5612C201.26 18.5748 216.325 2.19388 239.58 2.19388C262.982 2.19388 277.9 18.5748 277.9 42.5612V136.167ZM438.887 181.405C440.557 202.81 453.732 217.194 475.563 217.194C497.21 217.194 509.642 199.35 520.611 179.459L501.89 152.986C496.478 145.381 491.506 138.507 487.995 135.582C485.948 133.827 485.363 132.949 485.363 131.633C485.363 130.463 486.387 129.585 487.703 129.585C488.434 129.585 489.458 130.024 490.921 131.34C494.431 134.558 500.574 142.31 505.839 149.476L541.819 199.204C550.594 211.344 561.271 217.194 571.509 217.194C593.887 217.194 607.635 200.667 607.635 185.456C607.635 173.17 604.417 164.102 596.081 154.595L559.516 112.765C555.128 107.646 550.594 102.381 547.961 99.7484C546.206 97.9932 545.475 97.1157 545.475 95.7994C545.475 94.6293 546.499 93.7517 547.815 93.7517C548.547 93.7517 549.57 94.0443 551.033 95.5069C554.543 98.7245 560.101 105.014 564.781 110.718L599.006 62.5987C605.002 54.1157 608.659 44.9014 608.659 36.2721C608.659 17.9898 593.74 2.19388 573.995 2.19388C558.931 2.19388 547.815 12.2857 539.625 24.5714L510.227 68.3028C505.4 75.4694 498.819 83.2211 495.308 86.4388C493.846 87.7551 492.822 88.1939 492.091 88.1939C490.774 88.1939 489.751 87.3164 489.751 86.1463C489.751 84.83 490.336 83.9524 492.383 82.1973C495.893 79.2721 500.866 72.5443 505.985 65.2313L515.346 52.0681V42.5612C515.346 18.8674 500.427 2.19388 477.026 2.19388C453.625 2.19388 438.706 18.5748 438.706 42.5612V170.085C438.658 168.686 438.602 167.224 438.538 165.743L438.462 164.085C438.344 161.593 438.202 159.093 438.038 156.789L431.895 80.0034C427.8 28.2279 400.303 2.19388 357.303 2.19388C314.303 2.19388 286.807 28.2279 282.711 80.0034L277.719 142.406C277.633 143.873 277.517 145.326 277.37 146.764L276.568 156.789C275.983 164.98 275.691 175.657 275.691 179.606C275.691 203.592 290.609 217.194 313.133 217.194C334.341 217.194 346.188 207.541 352.184 181.361C353.647 174.925 354.085 168.051 354.524 156.789C347.796 156.789 339.313 155.473 336.242 154.449C333.317 153.425 332.147 152.548 332.147 151.085C332.147 149.769 333.024 149.037 334.487 149.037C335.454 149.037 337.06 149.421 338.503 149.766L338.503 149.766C339.242 149.942 339.938 150.108 340.483 150.208C346.626 151.378 351.453 151.816 357.303 151.816C363.154 151.816 367.98 151.378 374.123 150.208C374.667 150.109 375.361 149.943 376.099 149.767L376.1 149.767L376.1 149.767L376.103 149.766L376.103 149.766C377.546 149.421 379.152 149.037 380.119 149.037C381.582 149.037 382.46 149.769 382.46 151.085C382.46 152.548 381.29 153.425 378.364 154.449C375.293 155.473 366.81 156.789 360.082 156.789C360.521 168.051 360.96 174.925 362.422 181.361C368.419 207.541 380.266 217.194 401.473 217.194C423.428 217.194 438.156 204.271 438.887 181.405ZM438.887 181.405C438.906 180.812 438.915 180.212 438.915 179.606C438.915 177.678 438.846 174.147 438.706 170.085V176.68C438.706 178.29 438.767 179.865 438.887 181.405ZM379.103 97.9964C380.546 98.3409 382.152 98.7245 383.119 98.7245C384.582 98.7245 385.46 97.847 385.46 96.6769C385.46 95.0681 384.29 94.1905 381.364 93.313C378 92.2892 369.664 91.2654 363.082 90.9728V68.449C363.082 66.4014 362.204 65.2313 360.303 65.2313C358.402 65.2313 357.524 66.4014 357.524 68.449V90.9728C350.943 91.2654 342.606 92.2892 339.242 93.313C336.317 94.1905 335.147 95.0681 335.147 96.6769C335.147 97.847 336.024 98.7245 337.487 98.7245C338.454 98.7245 340.06 98.3409 341.503 97.9964C342.242 97.8198 342.938 97.6536 343.483 97.5545C349.188 96.3844 354.16 96.0919 360.303 96.0919C366.446 96.0919 371.419 96.3844 377.123 97.5545C377.668 97.6536 378.364 97.8198 379.103 97.9964ZM771.212 179.606C771.212 203.592 756.293 217.194 733.77 217.194C712.562 217.194 700.715 207.541 694.719 181.361C693.256 174.925 692.817 168.051 692.378 156.789C699.106 156.789 707.589 155.473 710.661 154.449C713.586 153.425 714.756 152.548 714.756 151.085C714.756 149.769 713.878 149.037 712.416 149.037C711.449 149.037 709.842 149.421 708.4 149.766C707.661 149.942 706.964 150.108 706.419 150.208C700.276 151.378 695.45 151.816 689.599 151.816C683.749 151.816 678.923 151.378 672.78 150.208C672.235 150.108 671.539 149.942 670.799 149.766C669.357 149.421 667.75 149.037 666.783 149.037C665.321 149.037 664.443 149.769 664.443 151.085C664.443 152.548 665.613 153.425 668.538 154.449C671.61 155.473 680.093 156.789 686.821 156.789C686.382 168.051 685.943 174.925 684.48 181.361C678.484 207.541 666.637 217.194 645.429 217.194C622.906 217.194 607.987 203.592 607.987 179.606C607.987 177.014 608.113 171.525 608.365 165.743L608.441 164.085C608.559 161.593 608.7 159.093 608.865 156.789L615.008 80.0034C619.103 28.2279 646.599 2.19388 689.599 2.19388C732.599 2.19388 760.096 28.2279 764.191 80.0034L770.334 156.789C770.919 164.98 771.212 175.657 771.212 179.606ZM712.416 98.7245C711.449 98.7245 709.842 98.3409 708.4 97.9964C707.661 97.8198 706.964 97.6536 706.419 97.5545C700.715 96.3844 695.742 96.0919 689.599 96.0919C683.457 96.0919 678.484 96.3844 672.78 97.5545C672.235 97.6536 671.539 97.8198 670.799 97.9964C669.357 98.3409 667.75 98.7245 666.783 98.7245C665.321 98.7245 664.443 97.847 664.443 96.6769C664.443 95.0681 665.613 94.1905 668.538 93.313C671.902 92.2892 680.239 91.2654 686.821 90.9728V68.449C686.821 66.4014 687.698 65.2313 689.599 65.2313C691.501 65.2313 692.378 66.4014 692.378 68.449V90.9728C698.96 91.2654 707.297 92.2892 710.661 93.313C713.586 94.1905 714.756 95.0681 714.756 96.6769C714.756 97.847 713.878 98.7245 712.416 98.7245ZM967.266 152.986C967.266 190.721 938.453 215 893.552 215H847.773C825.688 215 811.209 199.935 811.209 177.265V42.1225C811.209 19.4524 825.834 4.38776 847.773 4.38776H893.552C936.845 4.38776 967.559 29.398 967.559 64.9388C967.559 90.8266 950.739 108.085 922.658 113.497C918.855 114.228 917.831 114.813 917.831 116.129C917.831 117.299 918.709 118.177 919.879 118.177C920.464 118.177 923.828 117.592 927.192 117.007C931.141 116.276 939.185 113.497 945.328 110.718C959.807 119.493 967.266 133.827 967.266 152.986ZM887.117 91.1191C885.362 91.1191 884.338 89.949 884.338 87.7551V52.7993C884.338 50.7517 885.362 49.5817 887.117 49.5817C888.872 49.5817 889.749 50.6055 889.749 52.7993V87.7551C889.749 89.8028 888.726 91.1191 887.117 91.1191ZM884.338 167.174C884.338 169.367 885.362 170.538 887.117 170.538C888.726 170.538 889.749 169.221 889.749 167.174V132.218C889.749 130.024 888.872 129 887.117 129C885.362 129 884.338 130.17 884.338 132.218V167.174ZM1044.01 158.106C1044.01 160.299 1045.04 161.469 1046.79 161.469C1048.55 161.469 1049.57 160.299 1049.57 158.106V61.2823C1049.57 59.0885 1048.55 57.9184 1046.79 57.9184C1045.04 57.9184 1044.01 59.0885 1044.01 61.2823V158.106ZM1164.05 217.194C1186.14 217.194 1200.62 201.837 1200.62 179.459V157.228C1187.45 157.228 1176.19 154.742 1171.22 151.816C1169.76 150.939 1168.59 150.061 1168.59 148.891C1168.59 147.867 1169.17 146.99 1170.34 146.99C1171.22 146.99 1172.1 147.282 1172.68 147.575C1180.43 151.524 1189.21 152.401 1200.62 152.401C1253.86 152.401 1283.84 124.027 1283.84 78.3946C1283.84 32.3231 1253.56 4.38776 1199.74 4.38776H1164.05C1141.82 4.38776 1127.49 19.7449 1127.49 42.1225V179.459C1127.49 201.837 1141.82 217.194 1164.05 217.194ZM1200.62 97.4082C1200.62 99.4558 1201.49 100.772 1203.4 100.772C1205.15 100.772 1206.03 99.4558 1206.03 97.4082V61.2823C1206.03 59.2347 1205.15 58.0647 1203.4 58.0647C1201.49 58.0647 1200.62 59.2347 1200.62 61.2823V97.4082ZM1359.56 180.337C1359.56 202.568 1342.74 219.388 1320.51 219.388C1298.28 219.388 1281.46 202.568 1281.46 180.337C1281.46 158.106 1298.28 141.286 1320.51 141.286C1342.74 141.286 1359.56 158.106 1359.56 180.337Z" fill="black"/>
</svg>
